<?xml version="1.0" encoding="UTF-8"?>
<svg id="Ebene_1" data-name="Ebene 1" xmlns="http://www.w3.org/2000/svg" viewBox="0 0 500 500">
  <defs>
    <style>
      .cls-1 {
        fill: #27aae2;
      }

      .cls-2 {
        fill: #1d1d1b;
      }

      .cls-3 {
        fill: #ccab6b;
      }

      .cls-4 {
        fill: #fff;
      }
    </style>
  </defs>
  <rect class="cls-4" width="500" height="500"/>
  <g>
    <g>
      <path class="cls-2" d="M250.01,215.04l-57.06,28.02c-.26.05-.51.08-.76.08-.12,0-.22-.05-.33-.06v57.83l56.69,9.54,59.62-9.54v-58.21l-58.15-27.66Z"/>
      <path class="cls-2" d="M250.49,184.15l-58.64,30.68v21.07l57.38-28.09c.49-.1.99-.1,1.48,0l57.44,27.53v-20.5l-57.66-30.68Z"/>
    </g>
    <g>
      <g>
        <path class="cls-1" d="M251.89,112.95c-.68-1.12-1.89-1.79-3.24-1.79h0c-1.35,0-2.56.67-3.24,1.79-7.05,11.59-18.87,32.29-18.87,40.77,0,11.46,9.92,20.78,22.11,20.78s22.11-9.32,22.11-20.78c0-8.48-11.82-29.18-18.87-40.77Z"/>
        <path class="cls-1" d="M248.17,332.72c-12.19,0-22.11,9.32-22.11,20.78,0,8.49,11.82,29.19,18.87,40.77.68,1.12,1.89,1.79,3.24,1.79h0c1.35,0,2.56-.67,3.24-1.79,7.05-11.58,18.87-32.28,18.87-40.77,0-11.46-9.92-20.78-22.11-20.78Z"/>
        <path class="cls-1" d="M389.55,249.65c-11.58-7.05-32.29-18.87-40.77-18.87-11.46,0-20.78,9.92-20.78,22.11s9.32,22.11,20.78,22.11c8.49,0,29.19-11.82,40.77-18.87,1.12-.68,1.79-1.89,1.79-3.24,0-1.35-.67-2.56-1.78-3.24Z"/>
        <path class="cls-1" d="M350.75,350.4c-3.21-13.18-9.49-36.18-15.49-42.17-3.93-3.93-9.27-6.06-15.01-5.8-5.72.19-11.16,2.58-15.32,6.74-4.16,4.16-6.55,9.6-6.74,15.32-.19,5.75,1.87,11.08,5.8,15.01,6,6,29,12.28,42.17,15.49.29.07.58.1.87.1.98,0,1.95-.4,2.68-1.13.95-.96,1.34-2.28,1.03-3.55Z"/>
        <path class="cls-1" d="M348.27,153.26c-.95-.96-2.29-1.34-3.55-1.03-13.18,3.21-36.17,9.49-42.17,15.48-3.93,3.93-5.99,9.26-5.8,15.01.19,5.72,2.58,11.16,6.74,15.32,4.49,4.49,10.32,6.75,16.03,6.75,5.26,0,10.41-1.93,14.3-5.81,6-6,12.28-29,15.49-42.17.31-1.27-.08-2.6-1.03-3.55Z"/>
        <path class="cls-1" d="M150.56,230.78c-8.48,0-29.19,11.82-40.77,18.87-1.12.68-1.78,1.89-1.78,3.24,0,1.35.67,2.56,1.78,3.24,11.58,7.05,32.28,18.87,40.77,18.87,11.46,0,20.78-9.92,20.78-22.11s-9.32-22.11-20.78-22.11Z"/>
        <path class="cls-1" d="M194.4,309.17c-4.16-4.16-9.6-6.55-15.32-6.74-5.73-.24-11.08,1.87-15.01,5.8-6,6-12.28,28.99-15.49,42.17-.31,1.27.07,2.6,1.03,3.55.74.74,1.7,1.13,2.68,1.13.29,0,.58-.03.87-.11,13.18-3.21,36.17-9.49,42.17-15.48,8.1-8.1,7.68-21.71-.94-30.33Z"/>
        <path class="cls-1" d="M196.79,167.72c-6-6-29-12.28-42.17-15.48-1.27-.31-2.6.07-3.55,1.03-.95.96-1.34,2.28-1.03,3.55,3.21,13.18,9.49,36.17,15.49,42.17,3.76,3.76,8.81,5.81,14.28,5.81.24,0,.48,0,.73-.01,5.72-.19,11.16-2.58,15.32-6.74,4.16-4.16,6.55-9.6,6.74-15.32.19-5.75-1.87-11.08-5.8-15.01Z"/>
        <g>
          <path class="cls-1" d="M369.11,417.77c-9.01,10.65-24.99,11.98-35.64,2.97-8.42-7.13-20.35-38.05-25.14-51.16-.76-2.07,1.02-4.17,3.19-3.77,13.73,2.55,46.2,9.2,54.62,16.32,10.65,9.01,11.98,24.99,2.97,35.64Z"/>
          <path class="cls-1" d="M282.44,451.67c-13.9-1.06-24.35-13.24-23.29-27.14.84-11,18.91-38.78,26.74-50.35,1.24-1.83,3.98-1.62,4.93.38,5.97,12.62,19.61,42.83,18.77,53.83-1.06,13.9-13.24,24.35-27.14,23.29Z"/>
        </g>
        <g>
          <path class="cls-1" d="M282.64,48.27c13.94-.44,25.64,10.53,26.08,24.47.35,11.03-14.61,40.6-21.14,52.94-1.03,1.95-3.78,2.04-4.94.16-7.3-11.9-24.12-40.46-24.47-51.49-.44-13.94,10.53-25.64,24.47-26.08Z"/>
          <path class="cls-1" d="M365.87,89.91c8.52,11.04,6.48,26.95-4.55,35.47-8.73,6.74-41.46,11.94-55.29,13.88-2.18.31-3.87-1.87-3.02-3.91,5.37-12.89,18.66-43.25,27.39-49.99,11.04-8.52,26.95-6.48,35.47,4.55Z"/>
        </g>
        <g>
          <path class="cls-1" d="M449.8,282.11c1.74,13.84-8.1,26.51-21.93,28.25-10.95,1.38-41.78-10.77-54.68-16.11-2.04-.84-2.38-3.58-.62-4.9,11.17-8.38,38.04-27.79,48.98-29.17,13.84-1.74,26.51,8.1,28.25,21.93Z"/>
          <path class="cls-1" d="M416.1,368.86c-10.19,9.52-26.23,8.97-35.74-1.23-7.53-8.06-15.75-40.17-18.97-53.76-.51-2.15,1.51-4.03,3.61-3.37,13.34,4.15,44.8,14.55,52.33,22.61,9.52,10.19,8.97,26.23-1.23,35.74Z"/>
        </g>
        <g>
          <path class="cls-1" d="M411.71,133.6c10.85,8.76,12.55,24.71,3.79,35.56-6.93,8.58-37.57,21.22-50.57,26.31-2.05.8-4.2-.93-3.84-3.1,2.24-13.78,8.14-46.4,15.07-54.98,8.76-10.85,24.71-12.55,35.56-3.79Z"/>
          <path class="cls-1" d="M447.59,219.48c-.75,13.92-12.68,24.65-26.6,23.9-11.02-.59-39.2-18.02-50.95-25.58-1.85-1.19-1.71-3.94.26-4.93,12.48-6.26,42.37-20.58,53.39-19.99,13.92.75,24.65,12.68,23.9,26.6Z"/>
        </g>
        <g>
          <path class="cls-1" d="M133.86,382.13c8.42-7.13,40.89-13.77,54.62-16.32,2.17-.4,3.95,1.7,3.19,3.77-4.79,13.12-16.72,44.04-25.14,51.16-10.65,9.01-26.63,7.67-35.64-2.97-9.01-10.65-7.67-26.63,2.97-35.64Z"/>
          <path class="cls-1" d="M190.42,428.38c-.84-11,12.79-41.21,18.77-53.83.94-1.99,3.69-2.2,4.93-.38,7.82,11.57,25.9,39.35,26.74,50.35,1.06,13.9-9.38,26.08-23.29,27.14-13.9,1.06-26.08-9.38-27.14-23.29Z"/>
        </g>
        <g>
          <path class="cls-1" d="M241.83,74.35c-.35,11.03-17.17,39.58-24.47,51.49-1.15,1.88-3.91,1.79-4.94-.16-6.53-12.35-21.49-41.92-21.14-52.94.44-13.94,12.14-24.91,26.08-24.47,13.94.44,24.91,12.14,24.47,26.08Z"/>
          <path class="cls-1" d="M169.6,85.36c8.73,6.74,22.02,37.1,27.39,49.99.85,2.04-.84,4.22-3.02,3.91-13.83-1.94-46.56-7.13-55.29-13.88-11.04-8.52-13.08-24.44-4.55-35.47,8.52-11.04,24.44-13.08,35.47-4.55Z"/>
        </g>
        <g>
          <path class="cls-1" d="M78.45,260.18c10.95,1.38,37.81,20.79,48.98,29.17,1.76,1.32,1.42,4.06-.62,4.9-12.9,5.35-43.74,17.49-54.68,16.11-13.84-1.74-23.67-14.41-21.93-28.25,1.74-13.84,14.41-23.67,28.25-21.93Z"/>
          <path class="cls-1" d="M82.67,333.12c7.53-8.06,39-18.47,52.33-22.61,2.11-.65,4.12,1.23,3.61,3.37-3.22,13.59-11.44,45.69-18.97,53.76-9.52,10.19-25.55,10.74-35.74,1.23-10.19-9.52-10.74-25.55-1.23-35.74Z"/>
        </g>
        <g>
          <path class="cls-1" d="M123.85,137.39c6.93,8.58,12.83,41.2,15.07,54.98.35,2.18-1.79,3.91-3.84,3.1-13-5.09-43.64-17.73-50.57-26.31-8.76-10.85-7.06-26.8,3.79-35.56,10.85-8.76,26.8-7.06,35.56,3.79Z"/>
          <path class="cls-1" d="M76.31,192.87c11.02-.59,40.9,13.73,53.39,19.99,1.97.99,2.12,3.74.26,4.93-11.74,7.56-39.93,24.99-50.95,25.58-13.92.75-25.86-9.98-26.6-23.9-.75-13.92,9.98-25.86,23.9-26.6Z"/>
        </g>
      </g>
      <g>
        <g>
          <path class="cls-3" d="M251.89,112.95c-.68-1.12-1.89-1.79-3.24-1.79h0c-1.35,0-2.56.67-3.24,1.79-7.05,11.59-18.87,32.29-18.87,40.77,0,11.46,9.92,20.78,22.11,20.78s22.11-9.32,22.11-20.78c0-8.48-11.82-29.18-18.87-40.77Z"/>
          <path class="cls-3" d="M248.65,111.17c1.35,0,2.56.67,3.24,1.79,7.05,11.59,18.87,32.29,18.87,40.77,0,11.46-9.92,20.78-22.11,20.78s-22.11-9.32-22.11-20.78c0-8.48,11.82-29.18,18.87-40.77.68-1.12,1.89-1.79,3.24-1.79h0M248.65,110.17h0c-1.7,0-3.23.85-4.09,2.27-7.1,11.67-19.01,32.56-19.01,41.29,0,12.01,10.37,21.78,23.11,21.78s23.11-9.77,23.11-21.78c0-8.72-11.91-29.61-19.01-41.29-.86-1.42-2.39-2.27-4.09-2.27h0Z"/>
        </g>
        <g>
          <path class="cls-3" d="M248.17,332.72c-12.19,0-22.11,9.32-22.11,20.78,0,8.49,11.82,29.19,18.87,40.77.68,1.12,1.89,1.79,3.24,1.79h0c1.35,0,2.56-.67,3.24-1.79,7.05-11.58,18.87-32.28,18.87-40.77,0-11.46-9.92-20.78-22.11-20.78Z"/>
          <path class="cls-3" d="M248.17,332.72c12.19,0,22.11,9.32,22.11,20.78,0,8.49-11.82,29.19-18.87,40.77-.68,1.12-1.89,1.79-3.24,1.79h0c-1.35,0-2.56-.67-3.24-1.79-7.05-11.58-18.87-32.28-18.87-40.77,0-11.46,9.92-20.78,22.11-20.78M248.17,331.72c-12.74,0-23.11,9.77-23.11,21.78,0,8.73,11.91,29.62,19.02,41.29.86,1.42,2.39,2.27,4.09,2.27s3.23-.85,4.1-2.27c7.1-11.67,19.01-32.56,19.01-41.29,0-12.01-10.37-21.78-23.11-21.78h0Z"/>
        </g>
        <g>
          <path class="cls-3" d="M389.55,249.65c-11.58-7.05-32.29-18.87-40.77-18.87-11.46,0-20.78,9.92-20.78,22.11s9.32,22.11,20.78,22.11c8.49,0,29.19-11.82,40.77-18.87,1.12-.68,1.79-1.89,1.79-3.24,0-1.35-.67-2.56-1.78-3.24Z"/>
          <path class="cls-3" d="M348.78,230.78c8.48,0,29.19,11.82,40.77,18.87,1.12.68,1.79,1.89,1.78,3.24,0,1.35-.67,2.56-1.79,3.24-11.58,7.04-32.28,18.87-40.77,18.87-11.46,0-20.78-9.92-20.78-22.11s9.32-22.11,20.78-22.11M348.78,229.78c-12.01,0-21.78,10.37-21.78,23.11s9.77,23.11,21.78,23.11c8.73,0,29.62-11.91,41.29-19.01,1.42-.86,2.27-2.39,2.27-4.09,0-1.7-.84-3.23-2.26-4.1-11.67-7.1-32.56-19.01-41.29-19.01h0Z"/>
        </g>
        <g>
          <path class="cls-3" d="M350.75,350.4c-3.21-13.18-9.49-36.18-15.49-42.17-3.93-3.93-9.27-6.06-15.01-5.8-5.72.19-11.16,2.58-15.32,6.74-4.16,4.16-6.55,9.6-6.74,15.32-.19,5.75,1.87,11.08,5.8,15.01,6,6,29,12.28,42.17,15.49.29.07.58.1.87.1.98,0,1.95-.4,2.68-1.13.95-.96,1.34-2.28,1.03-3.55Z"/>
          <path class="cls-3" d="M321.18,302.41c5.38,0,10.37,2.1,14.08,5.82,5.99,5.99,12.28,28.99,15.49,42.17.31,1.27-.08,2.6-1.03,3.55-.74.74-1.7,1.13-2.68,1.13-.29,0-.58-.03-.87-.1-13.18-3.21-36.17-9.49-42.17-15.49-3.93-3.93-5.99-9.26-5.8-15.01.19-5.72,2.58-11.16,6.74-15.32,4.16-4.16,9.6-6.55,15.32-6.74.31-.01.62-.02.93-.02M321.18,301.41c-.32,0-.65,0-.97.02-5.96.19-11.64,2.69-15.98,7.03-4.34,4.34-6.84,10.02-7.03,15.99-.2,6.03,1.97,11.62,6.09,15.75,6.17,6.17,29.37,12.52,42.64,15.75.37.09.74.13,1.11.13,1.26,0,2.47-.51,3.39-1.43,1.2-1.21,1.69-2.89,1.29-4.5-3.24-13.28-9.58-36.47-15.75-42.64-3.94-3.94-9.19-6.11-14.79-6.11h0Z"/>
        </g>
        <g>
          <path class="cls-3" d="M348.27,153.26c-.95-.96-2.29-1.34-3.55-1.03-13.18,3.21-36.17,9.49-42.17,15.48-3.93,3.93-5.99,9.26-5.8,15.01.19,5.72,2.58,11.16,6.74,15.32,4.49,4.49,10.32,6.75,16.03,6.75,5.26,0,10.41-1.93,14.3-5.81,6-6,12.28-29,15.49-42.17.31-1.27-.08-2.6-1.03-3.55Z"/>
          <path class="cls-3" d="M345.59,152.13c.98,0,1.94.4,2.68,1.13.95.95,1.34,2.28,1.03,3.55-3.21,13.17-9.49,36.17-15.49,42.17-3.89,3.88-9.04,5.81-14.3,5.81h0c-5.7,0-11.53-2.27-16.02-6.75-4.16-4.16-6.55-9.6-6.74-15.32-.19-5.75,1.87-11.08,5.8-15.01,6-6,29-12.28,42.17-15.48.29-.07.58-.11.87-.11M345.59,151.13c-.37,0-.75.05-1.11.14-13.27,3.23-36.47,9.57-42.64,15.75-4.13,4.13-6.29,9.72-6.09,15.75.2,5.97,2.7,11.65,7.03,15.99,4.48,4.48,10.57,7.04,16.73,7.04,5.75,0,11.08-2.17,15.01-6.1,6.17-6.17,12.52-29.36,15.75-42.64.39-1.61-.09-3.3-1.29-4.5-.92-.92-2.12-1.43-3.38-1.43h0Z"/>
        </g>
        <g>
          <path class="cls-3" d="M150.56,230.78c-8.48,0-29.19,11.82-40.77,18.87-1.12.68-1.78,1.89-1.78,3.24,0,1.35.67,2.56,1.78,3.24,11.58,7.05,32.28,18.87,40.77,18.87,11.46,0,20.78-9.92,20.78-22.11s-9.32-22.11-20.78-22.11Z"/>
          <path class="cls-3" d="M150.56,230.78c11.46,0,20.78,9.92,20.78,22.11s-9.32,22.11-20.78,22.11c-8.49,0-29.19-11.82-40.77-18.87-1.12-.68-1.78-1.89-1.78-3.24,0-1.35.67-2.56,1.78-3.24,11.59-7.05,32.29-18.87,40.77-18.87M150.56,229.78c-8.73,0-29.62,11.91-41.29,19.01-1.42.86-2.26,2.39-2.26,4.1,0,1.7.85,3.23,2.26,4.09,11.67,7.1,32.55,19.02,41.29,19.02,12.01,0,21.78-10.37,21.78-23.11s-9.77-23.11-21.78-23.11h0Z"/>
        </g>
        <g>
          <path class="cls-3" d="M194.4,309.17c-4.16-4.16-9.6-6.55-15.32-6.74-5.73-.24-11.08,1.87-15.01,5.8-6,6-12.28,28.99-15.49,42.17-.31,1.27.07,2.6,1.03,3.55.74.74,1.7,1.13,2.68,1.13.29,0,.58-.03.87-.11,13.18-3.21,36.17-9.49,42.17-15.48,8.1-8.1,7.68-21.71-.94-30.33Z"/>
          <path class="cls-3" d="M178.22,302.41c.29,0,.58,0,.87.02,5.72.19,11.16,2.58,15.32,6.74,8.62,8.62,9.04,22.22.94,30.33-6,6-29,12.28-42.17,15.48-.29.07-.58.11-.87.11-.99,0-1.95-.4-2.68-1.13-.95-.96-1.34-2.28-1.03-3.55,3.21-13.17,9.49-36.17,15.49-42.17,3.73-3.73,8.74-5.82,14.14-5.82M178.22,301.41c-5.64,0-10.91,2.17-14.85,6.11-6.17,6.17-12.52,29.36-15.75,42.64-.39,1.61.09,3.29,1.29,4.5.92.92,2.13,1.43,3.39,1.43.37,0,.75-.05,1.11-.13,13.27-3.23,36.46-9.57,42.64-15.75,8.49-8.49,8.07-22.73-.94-31.74-4.34-4.34-10.02-6.84-15.99-7.03-.3-.01-.6-.02-.9-.02h0Z"/>
        </g>
        <g>
          <path class="cls-3" d="M196.79,167.72c-6-6-29-12.28-42.17-15.48-1.27-.31-2.6.07-3.55,1.03-.95.96-1.34,2.28-1.03,3.55,3.21,13.18,9.49,36.17,15.49,42.17,3.76,3.76,8.81,5.81,14.28,5.81.24,0,.48,0,.73-.01,5.72-.19,11.16-2.58,15.32-6.74,4.16-4.16,6.55-9.6,6.74-15.32.19-5.75-1.87-11.08-5.8-15.01Z"/>
          <path class="cls-3" d="M153.75,152.13c.29,0,.58.03.87.11,13.17,3.21,36.17,9.49,42.17,15.48,3.93,3.93,5.99,9.26,5.8,15.01-.19,5.72-2.58,11.16-6.74,15.32-4.16,4.16-9.6,6.55-15.32,6.74-.24,0-.48.01-.73.01-5.47,0-10.52-2.05-14.28-5.81-6-6-12.28-28.99-15.49-42.17-.31-1.27.08-2.6,1.03-3.55.74-.74,1.7-1.13,2.68-1.13M153.75,151.13c-1.26,0-2.47.51-3.39,1.42-1.2,1.2-1.69,2.89-1.29,4.5,3.24,13.28,9.58,36.47,15.75,42.64,3.94,3.94,9.26,6.11,14.99,6.11.26,0,.51,0,.77-.01,5.97-.19,11.64-2.69,15.98-7.03,4.34-4.34,6.84-10.02,7.03-15.99.2-6.03-1.97-11.62-6.09-15.75-6.18-6.17-29.37-12.52-42.64-15.75-.36-.09-.74-.13-1.11-.13h0Z"/>
        </g>
        <g>
          <g>
            <path class="cls-3" d="M369.11,417.77c-9.01,10.65-24.99,11.98-35.64,2.97-8.42-7.13-20.35-38.05-25.14-51.16-.76-2.07,1.02-4.17,3.19-3.77,13.73,2.55,46.2,9.2,54.62,16.32,10.65,9.01,11.98,24.99,2.97,35.64Z"/>
            <path class="cls-3" d="M310.98,365.76c.18,0,.35.02.54.05,13.73,2.55,46.2,9.2,54.62,16.32,10.65,9.01,11.98,24.99,2.97,35.64-4.99,5.9-12.14,8.94-19.32,8.94-5.77,0-11.57-1.96-16.31-5.97-8.42-7.13-20.35-38.05-25.14-51.16-.69-1.9.74-3.82,2.65-3.82M310.98,364.76h0c-1.24,0-2.42.62-3.14,1.65-.73,1.04-.89,2.32-.46,3.52,4.78,13.08,16.83,44.3,25.44,51.58,4.73,4,10.76,6.21,16.96,6.21,7.77,0,15.09-3.39,20.09-9.3,4.53-5.35,6.7-12.16,6.12-19.16-.58-7.01-3.85-13.36-9.21-17.89-8.61-7.29-41.39-14-55.08-16.54-.24-.04-.48-.07-.72-.07h0Z"/>
          </g>
          <g>
            <path class="cls-3" d="M282.44,451.67c-13.9-1.06-24.35-13.24-23.29-27.14.84-11,18.91-38.78,26.74-50.35,1.24-1.83,3.98-1.62,4.93.38,5.97,12.62,19.61,42.83,18.77,53.83-1.06,13.9-13.24,24.35-27.14,23.29Z"/>
            <path class="cls-3" d="M288.24,372.92c1.04,0,2.07.56,2.57,1.63,5.97,12.62,19.61,42.83,18.77,53.83-1.01,13.25-12.12,23.36-25.2,23.36-.64,0-1.29-.02-1.95-.07-13.9-1.06-24.35-13.24-23.29-27.14.84-11,18.91-38.78,26.74-50.35.57-.84,1.46-1.25,2.35-1.25M288.24,371.92h0c-1.27,0-2.46.63-3.18,1.69-7.8,11.54-26.05,39.59-26.91,50.83-1.11,14.45,9.75,27.11,24.21,28.22.67.05,1.35.08,2.02.08,13.65,0,25.15-10.67,26.19-24.28.86-11.25-12.9-41.74-18.86-54.33-.64-1.36-1.98-2.2-3.48-2.2h0Z"/>
          </g>
        </g>
        <g>
          <g>
            <path class="cls-3" d="M282.64,48.27c13.94-.44,25.64,10.53,26.08,24.47.35,11.03-14.61,40.6-21.14,52.94-1.03,1.95-3.78,2.04-4.94.16-7.3-11.9-24.12-40.46-24.47-51.49-.44-13.94,10.53-25.64,24.47-26.08Z"/>
            <path class="cls-3" d="M283.46,48.26c13.57,0,24.83,10.82,25.27,24.48.35,11.03-14.61,40.6-21.14,52.94-.53,1.01-1.52,1.52-2.52,1.52-.93,0-1.86-.45-2.42-1.36-7.3-11.9-24.12-40.46-24.47-51.49-.44-13.94,10.53-25.64,24.47-26.08.27,0,.55-.01.82-.01M283.46,47.26h0c-.28,0-.56,0-.85.01-14.49.46-25.9,12.62-25.44,27.11.36,11.27,17.34,40.11,24.62,51.98.71,1.15,1.93,1.84,3.27,1.84,1.43,0,2.73-.78,3.4-2.05,6.51-12.31,21.62-42.17,21.26-53.44-.22-6.86-3.06-13.27-8.01-18.05-4.94-4.77-11.42-7.4-18.25-7.4h0Z"/>
          </g>
          <g>
            <path class="cls-3" d="M365.87,89.91c8.52,11.04,6.48,26.95-4.55,35.47-8.73,6.74-41.46,11.94-55.29,13.88-2.18.31-3.87-1.87-3.02-3.91,5.37-12.89,18.66-43.25,27.39-49.99,11.04-8.52,26.95-6.48,35.47,4.55Z"/>
            <path class="cls-3" d="M345.83,80.09c7.57,0,15.06,3.38,20.04,9.82,8.52,11.04,6.48,26.95-4.55,35.47-8.73,6.74-41.46,11.94-55.29,13.88-.14.02-.28.03-.41.03-1.98,0-3.4-2.03-2.61-3.94,5.37-12.89,18.66-43.25,27.39-49.99,4.59-3.55,10.03-5.27,15.43-5.27M345.83,79.09h0c-5.86,0-11.41,1.89-16.04,5.47-8.93,6.9-22.35,37.54-27.71,50.4-.5,1.19-.37,2.54.35,3.61.72,1.07,1.91,1.71,3.19,1.71.18,0,.37-.01.55-.04,13.79-1.94,46.84-7.18,55.77-14.08,5.55-4.29,9.1-10.49,9.99-17.46.9-6.97-.97-13.87-5.26-19.42-5.01-6.49-12.6-10.21-20.83-10.21h0Z"/>
          </g>
        </g>
        <g>
          <g>
            <path class="cls-3" d="M449.8,282.11c1.74,13.84-8.1,26.51-21.93,28.25-10.95,1.38-41.78-10.77-54.68-16.11-2.04-.84-2.38-3.58-.62-4.9,11.17-8.38,38.04-27.79,48.98-29.17,13.84-1.74,26.51,8.1,28.25,21.93Z"/>
            <path class="cls-3" d="M424.73,259.98c12.55,0,23.46,9.36,25.07,22.13,1.74,13.84-8.1,26.51-21.93,28.25-.58.07-1.22.11-1.91.11-12.26,0-40.56-11.16-52.78-16.22-2.04-.84-2.38-3.58-.62-4.9,11.17-8.38,38.04-27.79,48.98-29.17,1.07-.13,2.13-.2,3.18-.2M424.73,258.98h0c-1.1,0-2.21.07-3.3.21-11.19,1.41-38.32,21-49.46,29.36-1.12.84-1.68,2.17-1.51,3.56.17,1.39,1.05,2.53,2.34,3.07,11.82,4.9,40.66,16.3,53.16,16.3.74,0,1.42-.04,2.03-.12,6.96-.88,13.16-4.42,17.47-9.97,4.31-5.55,6.2-12.44,5.33-19.4-1.65-13.12-12.86-23.01-26.06-23.01h0Z"/>
          </g>
          <g>
            <path class="cls-3" d="M416.1,368.86c-10.19,9.52-26.23,8.97-35.74-1.23-7.53-8.06-15.75-40.17-18.97-53.76-.51-2.15,1.51-4.03,3.61-3.37,13.34,4.15,44.8,14.55,52.33,22.61,9.52,10.19,8.97,26.23-1.23,35.74Z"/>
            <path class="cls-3" d="M364.14,310.37c.28,0,.57.04.86.13,13.34,4.15,44.8,14.55,52.33,22.61,9.52,10.19,8.97,26.23-1.23,35.74-4.87,4.54-11.07,6.79-17.25,6.79-6.77,0-13.52-2.69-18.49-8.02-7.53-8.06-15.75-40.17-18.97-53.76-.44-1.85,1-3.5,2.75-3.5M364.14,309.37h0c-1.17,0-2.27.54-3.01,1.47-.73.92-.99,2.11-.72,3.27,3.21,13.55,11.52,45.96,19.21,54.21,4.95,5.3,11.95,8.34,19.22,8.34,6.69,0,13.05-2.51,17.93-7.06,5.12-4.78,8.08-11.29,8.32-18.31.24-7.03-2.26-13.72-7.05-18.84-7.7-8.24-39.46-18.75-52.77-22.89-.38-.12-.77-.18-1.15-.18h0Z"/>
          </g>
        </g>
        <g>
          <g>
            <path class="cls-3" d="M411.71,133.6c10.85,8.76,12.55,24.71,3.79,35.56-6.93,8.58-37.57,21.22-50.57,26.31-2.05.8-4.2-.93-3.84-3.1,2.24-13.78,8.14-46.4,15.07-54.98,8.76-10.85,24.71-12.55,35.56-3.79Z"/>
            <path class="cls-3" d="M395.85,128c5.58,0,11.19,1.83,15.86,5.6,10.85,8.76,12.55,24.71,3.79,35.56-6.93,8.58-37.57,21.22-50.57,26.31-.35.14-.7.2-1.05.2-1.67,0-3.09-1.5-2.8-3.3,2.24-13.78,8.14-46.4,15.07-54.98,4.99-6.18,12.31-9.39,19.7-9.39M395.85,127h0c-8,0-15.47,3.56-20.48,9.76-7.09,8.78-13.05,41.7-15.28,55.45-.18,1.12.13,2.25.86,3.1.74.87,1.8,1.36,2.93,1.36.48,0,.95-.09,1.41-.27,12.97-5.08,43.9-17.84,50.99-26.61,4.4-5.45,6.42-12.31,5.68-19.3-.74-6.99-4.16-13.27-9.61-17.67-4.65-3.76-10.51-5.83-16.49-5.83h0Z"/>
          </g>
          <g>
            <path class="cls-3" d="M447.59,219.48c-.75,13.92-12.68,24.65-26.6,23.9-11.02-.59-39.2-18.02-50.95-25.58-1.85-1.19-1.71-3.94.26-4.93,12.48-6.26,42.37-20.58,53.39-19.99,13.92.75,24.65,12.68,23.9,26.6Z"/>
            <path class="cls-3" d="M423,192.86c.24,0,.46,0,.69.02,13.92.75,24.65,12.68,23.9,26.6-.72,13.47-11.91,23.94-25.24,23.94-.45,0-.91-.01-1.37-.04-11.02-.59-39.2-18.02-50.95-25.58-1.85-1.19-1.71-3.94.26-4.93,12.23-6.13,41.18-20.01,52.7-20.01M423,191.86h0c-11.76,0-41.09,14.07-53.15,20.12-1.25.63-2.04,1.83-2.12,3.23-.07,1.4.58,2.68,1.76,3.44,11.71,7.54,40.17,25.13,51.44,25.74.47.03.95.04,1.42.04,13.96,0,25.49-10.93,26.24-24.88.77-14.47-10.37-26.88-24.85-27.66-.24-.01-.48-.02-.74-.02h0Z"/>
          </g>
        </g>
        <g>
          <g>
            <path class="cls-3" d="M133.86,382.13c8.42-7.13,40.89-13.77,54.62-16.32,2.17-.4,3.95,1.7,3.19,3.77-4.79,13.12-16.72,44.04-25.14,51.16-10.65,9.01-26.63,7.67-35.64-2.97-9.01-10.65-7.67-26.63,2.97-35.64Z"/>
            <path class="cls-3" d="M189.02,365.76c1.91,0,3.35,1.92,2.65,3.82-4.79,13.12-16.72,44.04-25.14,51.16-4.74,4.01-10.54,5.97-16.31,5.97-7.19,0-14.33-3.04-19.32-8.94-9.01-10.65-7.67-26.63,2.97-35.64,8.42-7.13,40.89-13.77,54.62-16.32.18-.03.36-.05.54-.05M189.02,364.76h0c-.24,0-.48.02-.72.07-13.69,2.55-46.47,9.26-55.08,16.54-5.35,4.53-8.62,10.88-9.21,17.89-.58,7.01,1.59,13.81,6.12,19.16,5,5.91,12.32,9.3,20.09,9.3,6.21,0,12.23-2.2,16.96-6.21,8.61-7.29,20.66-38.5,25.44-51.58.44-1.2.27-2.48-.46-3.52-.72-1.03-1.89-1.65-3.14-1.65h0Z"/>
          </g>
          <g>
            <path class="cls-3" d="M190.42,428.38c-.84-11,12.79-41.21,18.77-53.83.94-1.99,3.69-2.2,4.93-.38,7.82,11.57,25.9,39.35,26.74,50.35,1.06,13.9-9.38,26.08-23.29,27.14-13.9,1.06-26.08-9.38-27.14-23.29Z"/>
            <path class="cls-3" d="M211.76,372.92c.89,0,1.78.41,2.35,1.25,7.82,11.57,25.9,39.35,26.74,50.35,1.06,13.9-9.38,26.08-23.29,27.14-.65.05-1.3.07-1.95.07-13.08,0-24.18-10.11-25.2-23.36-.84-11,12.79-41.21,18.77-53.83.51-1.07,1.54-1.63,2.57-1.63M211.76,371.92h0c-1.5,0-2.84.84-3.48,2.2-5.96,12.59-19.72,43.09-18.86,54.33,1.04,13.62,12.55,24.28,26.19,24.28.67,0,1.35-.03,2.02-.08,14.45-1.11,25.31-13.76,24.21-28.22-.86-11.25-19.1-39.3-26.91-50.83-.72-1.06-1.91-1.69-3.18-1.69h0Z"/>
          </g>
        </g>
        <g>
          <g>
            <path class="cls-3" d="M241.83,74.35c-.35,11.03-17.17,39.58-24.47,51.49-1.15,1.88-3.91,1.79-4.94-.16-6.53-12.35-21.49-41.92-21.14-52.94.44-13.94,12.14-24.91,26.08-24.47,13.94.44,24.91,12.14,24.47,26.08Z"/>
            <path class="cls-3" d="M216.54,48.26c.27,0,.54,0,.82.01,13.94.44,24.91,12.14,24.47,26.08-.35,11.03-17.17,39.58-24.47,51.49-.56.91-1.49,1.36-2.42,1.36-.99,0-1.98-.51-2.52-1.52-6.53-12.35-21.49-41.92-21.14-52.94.44-13.66,11.69-24.48,25.27-24.48M216.54,47.26h0c-6.84,0-13.32,2.63-18.25,7.4-4.95,4.78-7.79,11.19-8.01,18.05-.36,11.27,14.75,41.13,21.26,53.44.67,1.26,1.97,2.05,3.4,2.05,1.35,0,2.57-.69,3.27-1.84,7.28-11.87,24.26-40.71,24.62-51.98.46-14.49-10.95-26.65-25.44-27.11-.28,0-.56-.01-.85-.01h0Z"/>
          </g>
          <g>
            <path class="cls-3" d="M169.6,85.36c8.73,6.74,22.02,37.1,27.39,49.99.85,2.04-.84,4.22-3.02,3.91-13.83-1.94-46.56-7.13-55.29-13.88-11.04-8.52-13.08-24.44-4.55-35.47,8.52-11.04,24.44-13.08,35.47-4.55Z"/>
            <path class="cls-3" d="M154.17,80.09c5.4,0,10.84,1.72,15.43,5.27,8.73,6.74,22.02,37.1,27.39,49.99.79,1.91-.63,3.94-2.61,3.94-.13,0-.27,0-.41-.03-13.83-1.94-46.56-7.13-55.29-13.88-11.04-8.52-13.08-24.44-4.55-35.47,4.98-6.44,12.47-9.82,20.04-9.82M154.17,79.09c-8.23,0-15.82,3.72-20.83,10.21-4.29,5.55-6.15,12.44-5.26,19.42.9,6.97,4.44,13.17,9.99,17.46,8.93,6.9,41.97,12.14,55.77,14.08.18.03.37.04.55.04,1.28,0,2.47-.64,3.19-1.71.71-1.07.84-2.42.35-3.61-5.36-12.86-18.78-43.51-27.71-50.4-4.64-3.58-10.18-5.47-16.04-5.47h0Z"/>
          </g>
        </g>
        <g>
          <g>
            <path class="cls-3" d="M78.45,260.18c10.95,1.38,37.81,20.79,48.98,29.17,1.76,1.32,1.42,4.06-.62,4.9-12.9,5.35-43.74,17.49-54.68,16.11-13.84-1.74-23.67-14.41-21.93-28.25,1.74-13.84,14.41-23.67,28.25-21.93Z"/>
            <path class="cls-3" d="M75.27,259.98c1.05,0,2.11.07,3.18.2,10.95,1.38,37.81,20.79,48.98,29.17,1.76,1.32,1.42,4.06-.62,4.9-12.21,5.07-40.51,16.22-52.78,16.22-.69,0-1.32-.04-1.91-.11-13.84-1.74-23.67-14.41-21.93-28.25,1.61-12.77,12.52-22.13,25.07-22.13M75.27,258.98v1-1h0c-13.21,0-24.41,9.89-26.06,23.01-.88,6.96,1.02,13.85,5.33,19.4,4.31,5.55,10.52,9.09,17.47,9.97.61.08,1.29.12,2.03.12,12.51,0,41.34-11.4,53.16-16.3,1.29-.54,2.17-1.68,2.34-3.07.17-1.39-.39-2.72-1.51-3.56-11.14-8.36-38.27-27.95-49.46-29.36-1.09-.14-2.2-.21-3.3-.21h0Z"/>
          </g>
          <g>
            <path class="cls-3" d="M82.67,333.12c7.53-8.06,39-18.47,52.33-22.61,2.11-.65,4.12,1.23,3.61,3.37-3.22,13.59-11.44,45.69-18.97,53.76-9.52,10.19-25.55,10.74-35.74,1.23-10.19-9.52-10.74-25.55-1.23-35.74Z"/>
            <path class="cls-3" d="M135.86,310.37c1.75,0,3.19,1.65,2.75,3.5-3.22,13.59-11.44,45.69-18.97,53.76-4.97,5.33-11.72,8.02-18.49,8.02-6.18,0-12.38-2.25-17.25-6.79-10.19-9.52-10.74-25.55-1.23-35.74,7.53-8.06,39-18.47,52.33-22.61.29-.09.58-.13.86-.13M135.86,309.37h0c-.39,0-.78.06-1.15.18-13.3,4.13-45.07,14.64-52.77,22.89-4.78,5.12-7.29,11.82-7.05,18.84.24,7.03,3.2,13.53,8.32,18.31,4.88,4.55,11.25,7.06,17.93,7.06,7.27,0,14.28-3.04,19.22-8.34,7.7-8.25,16-40.66,19.21-54.21.27-1.15.01-2.34-.72-3.27-.74-.93-1.83-1.47-3.01-1.47h0Z"/>
          </g>
        </g>
        <g>
          <g>
            <path class="cls-3" d="M123.85,137.39c6.93,8.58,12.83,41.2,15.07,54.98.35,2.18-1.79,3.91-3.84,3.1-13-5.09-43.64-17.73-50.57-26.31-8.76-10.85-7.06-26.8,3.79-35.56,10.85-8.76,26.8-7.06,35.56,3.79Z"/>
            <path class="cls-3" d="M104.15,128c7.39,0,14.71,3.21,19.7,9.39,6.93,8.58,12.83,41.2,15.07,54.98.29,1.81-1.13,3.3-2.8,3.3-.34,0-.7-.06-1.05-.2-13-5.09-43.64-17.73-50.57-26.31-8.76-10.85-7.06-26.8,3.79-35.56,4.67-3.77,10.28-5.6,15.86-5.6M104.15,127h0c-5.98,0-11.84,2.07-16.49,5.83-5.45,4.4-8.87,10.68-9.61,17.67-.74,6.99,1.27,13.84,5.68,19.3,7.09,8.78,38.02,21.53,50.99,26.61.46.18.93.27,1.41.27,1.12,0,2.19-.5,2.93-1.36.73-.85,1.04-1.99.86-3.1-2.23-13.75-8.19-46.67-15.28-55.45-5.01-6.2-12.47-9.76-20.48-9.76h0Z"/>
          </g>
          <g>
            <path class="cls-3" d="M76.31,192.87c11.02-.59,40.9,13.73,53.39,19.99,1.97.99,2.12,3.74.26,4.93-11.74,7.56-39.93,24.99-50.95,25.58-13.92.75-25.86-9.98-26.6-23.9-.75-13.92,9.98-25.86,23.9-26.6Z"/>
            <path class="cls-3" d="M77,192.86c11.52,0,40.47,13.88,52.7,20.01,1.97.99,2.12,3.74.26,4.93-11.74,7.56-39.93,24.99-50.95,25.58-.46.02-.91.04-1.37.04-13.33,0-24.52-10.47-25.24-23.94-.75-13.92,9.98-25.86,23.9-26.6.22-.01.45-.02.69-.02M77,191.86h0c-.25,0-.5,0-.74.02-14.47.77-25.62,13.18-24.85,27.66.75,13.95,12.27,24.88,26.24,24.88.47,0,.95-.01,1.42-.04,11.26-.6,39.72-18.2,51.44-25.74,1.18-.76,1.83-2.04,1.76-3.44-.07-1.4-.87-2.6-2.12-3.23-12.06-6.05-41.38-20.12-53.15-20.12h0Z"/>
          </g>
        </g>
      </g>
    </g>
  </g>
</svg>