<?xml version="1.0" encoding="UTF-8"?>
<svg id="Ebene_1" data-name="Ebene 1" xmlns="http://www.w3.org/2000/svg" viewBox="0 0 400 140">
  <defs>
    <style>
      .cls-1 {
        fill: #27aae2;
      }

      .cls-2 {
        fill: #1d1d1b;
      }

      .cls-3 {
        fill: #ccab6b;
      }
    </style>
  </defs>
  <g>
    <path d="M199.02,57.84c.17.44.34.88.51,1.32.16-.46.34-.9.52-1.32.18-.42.39-.85.62-1.27l12-21.79c.21-.38.44-.61.67-.69.23-.08.56-.12.99-.12h3.54v35.44h-4.21v-26.04c0-.35,0-.72.02-1.11.02-.4.04-.8.08-1.21l-12.14,22.16c-.41.74-.99,1.11-1.73,1.11h-.69c-.74,0-1.32-.37-1.73-1.11l-12.41-22.23c.05.43.09.85.11,1.26.03.41.04.79.04,1.14v26.04h-4.21v-35.44h3.53c.43,0,.76.04.99.12.23.08.45.31.67.69l12.24,21.81c.23.39.43.81.61,1.25Z"/>
    <path d="M254.9,69.4h-3.71c-.43,0-.77-.11-1.04-.32s-.46-.49-.59-.82l-3.31-8.56h-15.9l-3.32,8.56c-.11.3-.31.56-.59.79-.28.23-.63.35-1.04.35h-3.71l14.17-35.44h4.87l14.17,35.44ZM231.68,56.24h13.23l-5.57-14.42c-.36-.89-.72-2-1.06-3.34-.18.68-.36,1.3-.53,1.87-.17.57-.34,1.07-.51,1.5l-5.57,14.39Z"/>
    <path d="M263.9,54.61v14.79h-4.77v-35.44h10.02c2.24,0,4.18.23,5.81.68s2.98,1.11,4.04,1.97c1.06.86,1.85,1.89,2.36,3.1s.77,2.57.77,4.07c0,1.25-.2,2.42-.6,3.51-.39,1.09-.97,2.07-1.72,2.93-.75.87-1.67,1.6-2.74,2.21-1.08.61-2.31,1.07-3.67,1.39.59.35,1.12.85,1.58,1.51l10.34,14.07h-4.25c-.87,0-1.52-.34-1.93-1.01l-9.2-12.66c-.28-.39-.59-.68-.91-.85s-.82-.26-1.48-.26h-3.64ZM263.9,51.12h5.02c1.4,0,2.63-.17,3.69-.51,1.07-.34,1.95-.82,2.67-1.43.72-.62,1.26-1.36,1.62-2.21.36-.86.54-1.81.54-2.84,0-2.11-.7-3.7-2.09-4.77-1.4-1.07-3.47-1.61-6.22-1.61h-5.25v13.38Z"/>
    <path d="M311.59,33.96v3.91h-17.01v11.77h13.78v3.76h-13.78v12.09h17.01v3.91h-21.84v-35.44h21.84Z"/>
    <path d="M339.58,33.96v3.91h-17.01v12.39h14.54v3.91h-14.54v15.23h-4.82v-35.44h21.84Z"/>
    <path d="M370.89,69.4h-3.71c-.43,0-.78-.11-1.04-.32-.26-.21-.46-.49-.59-.82l-3.32-8.56h-15.9l-3.31,8.56c-.11.3-.31.56-.59.79-.28.23-.63.35-1.04.35h-3.71l14.17-35.44h4.87l14.17,35.44ZM347.67,56.24h13.23l-5.57-14.42c-.36-.89-.72-2-1.06-3.34-.18.68-.36,1.3-.53,1.87-.18.57-.34,1.07-.51,1.5l-5.57,14.39Z"/>
    <path d="M395.5,33.96v4.03h-11.45v31.41h-4.8v-31.41h-11.5v-4.03h27.75Z"/>
    <path d="M185.58,79.22c1.34,0,2.5.16,3.49.47.99.31,1.81.75,2.46,1.32.65.57,1.13,1.25,1.45,2.06.32.8.47,1.7.47,2.68s-.17,1.88-.51,2.7c-.34.82-.84,1.53-1.5,2.12-.66.59-1.48,1.05-2.47,1.38-.98.33-2.11.49-3.4.49h-3.23v7.7h-3.1v-20.89h6.33ZM185.58,89.98c.79,0,1.47-.1,2.07-.31.6-.2,1.1-.49,1.5-.87.4-.37.7-.82.91-1.34.2-.52.31-1.09.31-1.72,0-1.27-.4-2.27-1.19-3s-1.99-1.09-3.6-1.09h-3.23v8.32h3.23Z"/>
    <path d="M199.27,80.77c0,.26-.05.51-.16.75-.11.24-.25.45-.43.63-.18.18-.39.32-.63.42-.24.1-.5.15-.76.15s-.51-.05-.74-.15c-.23-.1-.44-.24-.62-.42-.18-.18-.32-.39-.42-.63-.1-.24-.15-.49-.15-.75s.05-.53.15-.76c.1-.24.24-.45.42-.63.18-.18.39-.32.62-.42s.48-.15.74-.15.52.05.76.15.45.24.63.42c.18.18.32.39.43.63.11.24.16.49.16.76ZM198.73,85.33v14.78h-2.84v-14.78h2.84Z"/>
    <path d="M205.32,78.64v21.47h-2.85v-21.47h2.85Z"/>
    <path d="M221.52,85.89v1.06c0,.35-.22.57-.65.65l-1.59.23c.14.3.24.62.32.95.08.34.12.69.12,1.06,0,.73-.14,1.38-.42,1.97s-.67,1.09-1.16,1.51-1.09.74-1.77.96c-.69.22-1.43.33-2.25.33-.67,0-1.3-.07-1.88-.22-.29.17-.51.37-.66.57s-.22.41-.22.62c0,.34.14.59.43.76.29.16.66.28,1.12.36.46.07.99.12,1.59.14s1.2.05,1.82.1c.62.04,1.22.12,1.82.23.6.11,1.13.29,1.59.54s.83.59,1.12,1.02.43.99.43,1.68c0,.64-.16,1.26-.47,1.86-.32.6-.77,1.13-1.38,1.6s-1.34.84-2.2,1.12c-.86.28-1.84.42-2.94.42s-2.05-.11-2.86-.32c-.81-.21-1.48-.5-2.02-.86-.54-.36-.94-.78-1.21-1.25-.27-.47-.4-.97-.4-1.48,0-.72.22-1.33.67-1.83.45-.5,1.06-.89,1.85-1.17-.43-.19-.77-.46-1.02-.79-.25-.33-.38-.78-.38-1.33,0-.21.04-.43.11-.66.08-.23.2-.45.36-.68.16-.23.36-.44.6-.65.24-.2.51-.39.82-.55-.73-.41-1.3-.95-1.72-1.62-.42-.67-.63-1.46-.63-2.36,0-.73.14-1.38.42-1.96.28-.58.67-1.08,1.17-1.5.5-.42,1.1-.74,1.79-.96s1.45-.34,2.28-.34c1.28,0,2.38.27,3.3.8h4.1ZM218.64,100.89c0-.35-.1-.63-.29-.84s-.46-.37-.79-.49c-.33-.12-.72-.21-1.17-.26-.45-.05-.91-.09-1.4-.12-.49-.03-.99-.06-1.51-.08s-1.01-.07-1.48-.14c-.51.25-.92.56-1.24.92-.33.36-.49.78-.49,1.27,0,.31.08.6.24.87s.41.51.74.71c.34.2.76.35,1.26.47.51.11,1.12.17,1.83.17s1.32-.06,1.85-.18c.53-.12.98-.29,1.34-.51.36-.22.64-.48.83-.78s.28-.63.28-.99ZM214.12,92.74c.51,0,.95-.07,1.33-.2s.7-.33.96-.58c.26-.25.45-.55.59-.89.13-.35.19-.73.19-1.15,0-.85-.26-1.54-.78-2.04-.52-.51-1.28-.76-2.29-.76s-1.76.26-2.28.76-.78,1.19-.78,2.04c0,.42.07.8.2,1.14.13.34.32.64.58.89s.58.44.96.58.82.21,1.32.21Z"/>
    <path d="M226.35,88.17c.47-.97,1.05-1.73,1.72-2.28s1.47-.83,2.42-.83c.32,0,.63.04.91.11.28.07.53.18.75.33l-.19,2.14c-.07.26-.23.39-.48.39-.14,0-.34-.03-.61-.08-.27-.05-.56-.08-.87-.08-.45,0-.86.07-1.21.2s-.66.33-.94.58-.52.57-.74.94c-.21.37-.41.8-.6,1.27v9.25h-2.84v-14.78h1.63c.31,0,.52.06.63.17.11.11.19.31.24.59l.18,2.08Z"/>
    <path d="M237.41,80.77c0,.26-.06.51-.16.75-.11.24-.25.45-.43.63-.18.18-.39.32-.63.42-.24.1-.5.15-.76.15s-.51-.05-.74-.15c-.23-.1-.44-.24-.62-.42-.18-.18-.32-.39-.42-.63-.1-.24-.15-.49-.15-.75s.05-.53.15-.76c.1-.24.24-.45.42-.63.18-.18.39-.32.62-.42s.48-.15.74-.15.51.05.76.15c.24.1.45.24.63.42s.32.39.43.63c.11.24.16.49.16.76ZM236.87,85.33v14.78h-2.84v-14.78h2.84Z"/>
    <path d="M240.56,100.12v-14.78h1.7c.4,0,.65.19.74.57l.2,1.41c.54-.65,1.15-1.18,1.81-1.59.66-.41,1.44-.62,2.34-.62.98,0,1.78.27,2.39.81s1.06,1.27,1.34,2.19c.21-.52.49-.97.83-1.35.34-.38.72-.69,1.13-.93.42-.24.86-.42,1.33-.54s.95-.17,1.43-.17c.79,0,1.49.12,2.1.37.62.25,1.14.61,1.57,1.08.43.48.75,1.06.97,1.76.22.7.34,1.49.34,2.39v9.41h-2.85v-9.41c0-1.11-.24-1.94-.72-2.5-.48-.56-1.18-.84-2.1-.84-.41,0-.8.07-1.16.21s-.69.35-.97.63c-.28.28-.49.63-.66,1.05-.16.42-.24.9-.24,1.45v9.41h-2.85v-9.41c0-1.15-.23-1.99-.68-2.53s-1.13-.81-2.01-.81c-.61,0-1.18.16-1.7.48-.52.32-1,.76-1.44,1.31v10.97h-2.84Z"/>
    <path d="M263.79,87.4c.82-.79,1.72-1.37,2.68-1.76.97-.39,2.03-.58,3.18-.58.84,0,1.59.14,2.24.41.65.28,1.2.66,1.64,1.16.45.49.78,1.09,1.01,1.77s.34,1.45.34,2.28v9.43h-1.26c-.28,0-.49-.05-.64-.14-.15-.09-.26-.26-.35-.52l-.3-1.29c-.38.35-.76.66-1.12.92s-.75.49-1.16.68-.83.33-1.29.43c-.46.1-.96.15-1.51.15s-1.13-.08-1.64-.24c-.51-.16-.95-.4-1.33-.73s-.68-.74-.9-1.24c-.22-.49-.33-1.07-.33-1.73,0-.58.16-1.14.47-1.68.32-.54.83-1.02,1.54-1.45.71-.43,1.65-.78,2.79-1.05s2.56-.43,4.24-.47v-1.08c0-1.11-.24-1.95-.71-2.5-.48-.55-1.18-.83-2.1-.83-.62,0-1.14.08-1.56.23-.42.16-.78.33-1.09.52s-.57.36-.8.52c-.23.16-.46.23-.7.23-.19,0-.36-.05-.5-.16-.14-.11-.26-.23-.34-.38l-.51-.92ZM272.11,93.55c-1.15.04-2.13.13-2.94.27-.8.14-1.46.33-1.96.56-.5.23-.87.51-1.09.82s-.33.67-.33,1.05.06.69.18.95c.12.27.28.49.49.65.2.17.45.29.73.37s.59.12.91.12c.44,0,.84-.04,1.2-.13.36-.09.7-.21,1.03-.37.32-.16.63-.36.91-.59.29-.23.58-.5.86-.8v-2.91Z"/>
    <path d="M290.86,85.89v1.06c0,.35-.22.57-.65.65l-1.59.23c.13.3.24.62.32.95.08.34.12.69.12,1.06,0,.73-.14,1.38-.42,1.97-.28.59-.67,1.09-1.16,1.51s-1.08.74-1.77.96-1.43.33-2.25.33c-.67,0-1.3-.07-1.88-.22-.29.17-.51.37-.66.57-.15.21-.22.41-.22.62,0,.34.14.59.43.76s.66.28,1.12.36.99.12,1.59.14,1.2.05,1.82.1c.62.04,1.22.12,1.82.23.6.11,1.13.29,1.59.54s.84.59,1.12,1.02c.29.43.43.99.43,1.68,0,.64-.16,1.26-.47,1.86-.32.6-.78,1.13-1.38,1.6-.6.47-1.34.84-2.2,1.12-.86.28-1.84.42-2.94.42s-2.05-.11-2.86-.32-1.48-.5-2.02-.86c-.54-.36-.94-.78-1.2-1.25-.27-.47-.4-.97-.4-1.48,0-.72.22-1.33.67-1.83.45-.5,1.06-.89,1.85-1.17-.43-.19-.77-.46-1.02-.79-.25-.33-.38-.78-.38-1.33,0-.21.04-.43.12-.66.08-.23.2-.45.36-.68.16-.23.36-.44.6-.65.24-.2.51-.39.82-.55-.73-.41-1.3-.95-1.72-1.62-.41-.67-.63-1.46-.63-2.36,0-.73.14-1.38.42-1.96.28-.58.67-1.08,1.17-1.5.5-.42,1.1-.74,1.79-.96s1.45-.34,2.28-.34c1.28,0,2.38.27,3.3.8h4.1ZM287.98,100.89c0-.35-.1-.63-.29-.84s-.46-.37-.8-.49c-.33-.12-.72-.21-1.17-.26-.44-.05-.91-.09-1.4-.12-.49-.03-.99-.06-1.51-.08-.51-.02-1.01-.07-1.48-.14-.51.25-.92.56-1.24.92-.32.36-.49.78-.49,1.27,0,.31.08.6.24.87.16.27.41.51.74.71.34.2.76.35,1.27.47.51.11,1.12.17,1.82.17s1.32-.06,1.85-.18c.53-.12.98-.29,1.34-.51.36-.22.64-.48.83-.78.19-.3.28-.63.28-.99ZM283.46,92.74c.5,0,.95-.07,1.33-.2.38-.14.7-.33.96-.58.26-.25.45-.55.58-.89.13-.35.2-.73.2-1.15,0-.85-.26-1.54-.78-2.04s-1.28-.76-2.29-.76-1.76.26-2.28.76c-.52.51-.78,1.19-.78,2.04,0,.42.07.8.2,1.14.13.34.32.64.58.89.26.25.58.44.96.58.38.14.82.21,1.32.21Z"/>
    <path d="M304.91,98.01c-.35.41-.75.76-1.21,1.06-.46.3-.94.54-1.45.72-.51.18-1.05.32-1.59.41-.55.09-1.09.13-1.62.13-1.02,0-1.96-.17-2.83-.52-.87-.34-1.62-.85-2.26-1.51-.64-.66-1.13-1.49-1.48-2.47-.36-.98-.53-2.12-.53-3.4,0-1.03.16-1.99.48-2.87.32-.89.78-1.66,1.38-2.32.6-.66,1.32-1.18,2.19-1.56.86-.38,1.84-.57,2.91-.57.9,0,1.73.15,2.49.44.76.3,1.42.72,1.97,1.29s.99,1.26,1.3,2.08c.32.83.47,1.77.47,2.82,0,.44-.05.73-.14.88-.1.15-.28.23-.54.23h-9.69c.03.88.16,1.65.38,2.31.22.65.53,1.2.92,1.64s.86.76,1.4.97c.55.21,1.15.32,1.82.32.63,0,1.18-.07,1.64-.22.46-.15.86-.3,1.19-.47.34-.17.62-.33.85-.47.23-.14.43-.22.6-.22.23,0,.41.09.54.26l.81,1.05ZM302.57,91.08c0-.56-.08-1.08-.24-1.56-.16-.47-.39-.89-.7-1.24s-.69-.62-1.13-.82c-.45-.19-.96-.29-1.54-.29-1.19,0-2.13.34-2.82,1.03-.68.69-1.12,1.64-1.3,2.87h7.74Z"/>
  </g>
  <rect class="cls-2" x="153.67" y="21.31" width="3.25" height="97.38"/>
  <g>
    <g>
      <path class="cls-2" d="M70.08,58.71l-18.43,9.05c-.08.02-.17.02-.25.02-.04,0-.07-.01-.11-.02v18.67l18.3,3.08,19.25-3.08v-18.8l-18.77-8.93Z"/>
      <path class="cls-2" d="M70.24,48.74l-18.93,9.91v6.8l18.53-9.07c.16-.03.32-.03.48,0l18.55,8.89v-6.62l-18.62-9.91Z"/>
    </g>
    <g>
      <g>
        <path class="cls-1" d="M70.69,25.75c-.22-.36-.61-.58-1.05-.58h0c-.44,0-.83.22-1.05.58-2.28,3.74-6.09,10.42-6.09,13.16,0,3.7,3.2,6.71,7.14,6.71s7.14-3.01,7.14-6.71c0-2.74-3.82-9.42-6.09-13.16Z"/>
        <path class="cls-1" d="M69.49,96.71c-3.94,0-7.14,3.01-7.14,6.71,0,2.74,3.82,9.42,6.09,13.16.22.36.61.58,1.05.58h0c.44,0,.83-.22,1.05-.58,2.28-3.74,6.09-10.42,6.09-13.16,0-3.7-3.2-6.71-7.14-6.71Z"/>
        <path class="cls-1" d="M115.14,69.89c-3.74-2.28-10.42-6.09-13.16-6.09-3.7,0-6.71,3.2-6.71,7.14s3.01,7.14,6.71,7.14c2.74,0,9.42-3.82,13.16-6.09.36-.22.58-.61.58-1.05,0-.44-.21-.83-.58-1.05Z"/>
        <path class="cls-1" d="M102.61,102.42c-1.04-4.25-3.07-11.68-5-13.62-1.27-1.27-2.99-1.96-4.85-1.87-1.85.06-3.6.83-4.95,2.18s-2.12,3.1-2.18,4.95c-.06,1.86.6,3.58,1.87,4.85,1.94,1.94,9.36,3.96,13.62,5,.09.02.19.03.28.03.32,0,.63-.13.87-.37.31-.31.43-.74.33-1.15Z"/>
        <path class="cls-1" d="M101.81,38.76c-.31-.31-.74-.43-1.15-.33-4.25,1.04-11.68,3.06-13.62,5-1.27,1.27-1.93,2.99-1.87,4.85.06,1.85.83,3.6,2.18,4.95,1.45,1.45,3.33,2.18,5.18,2.18,1.7,0,3.36-.62,4.62-1.88,1.94-1.94,3.96-9.36,5-13.62.1-.41-.02-.84-.33-1.15Z"/>
        <path class="cls-1" d="M37.97,63.79c-2.74,0-9.42,3.82-13.16,6.09-.36.22-.58.61-.58,1.05,0,.44.22.83.58,1.05,3.74,2.28,10.42,6.09,13.16,6.09,3.7,0,6.71-3.2,6.71-7.14s-3.01-7.14-6.71-7.14Z"/>
        <path class="cls-1" d="M52.13,89.11c-1.34-1.34-3.1-2.12-4.95-2.18-1.85-.08-3.58.6-4.85,1.87-1.94,1.94-3.96,9.36-5,13.62-.1.41.02.84.33,1.15.24.24.55.37.87.37.09,0,.19-.01.28-.03,4.25-1.04,11.68-3.06,13.62-5,2.62-2.62,2.48-7.01-.3-9.79Z"/>
        <path class="cls-1" d="M52.9,43.43c-1.94-1.94-9.36-3.96-13.62-5-.41-.1-.84.02-1.15.33-.31.31-.43.74-.33,1.15,1.04,4.25,3.06,11.68,5,13.62,1.22,1.22,2.85,1.88,4.61,1.88.08,0,.16,0,.23,0,1.85-.06,3.6-.83,4.95-2.18,1.34-1.34,2.12-3.1,2.18-4.95.06-1.86-.6-3.58-1.87-4.85Z"/>
        <g>
          <path class="cls-1" d="M108.54,124.17c-2.91,3.44-8.07,3.87-11.51.96-2.72-2.3-6.57-12.29-8.12-16.52-.24-.67.33-1.35,1.03-1.22,4.43.82,14.92,2.97,17.64,5.27,3.44,2.91,3.87,8.07.96,11.51Z"/>
          <path class="cls-1" d="M80.55,135.12c-4.49-.34-7.86-4.28-7.52-8.76.27-3.55,6.11-12.52,8.63-16.26.4-.59,1.29-.52,1.59.12,1.93,4.08,6.33,13.83,6.06,17.38-.34,4.49-4.28,7.86-8.76,7.52Z"/>
        </g>
        <g>
          <path class="cls-1" d="M80.62,4.86c4.5-.14,8.28,3.4,8.42,7.9.11,3.56-4.72,13.11-6.83,17.09-.33.63-1.22.66-1.59.05-2.36-3.84-7.79-13.07-7.9-16.63-.14-4.5,3.4-8.28,7.9-8.42Z"/>
          <path class="cls-1" d="M107.49,18.31c2.75,3.56,2.09,8.7-1.47,11.45-2.82,2.18-13.39,3.85-17.85,4.48-.71.1-1.25-.61-.98-1.26,1.73-4.16,6.03-13.97,8.85-16.14,3.56-2.75,8.7-2.09,11.45,1.47Z"/>
        </g>
        <g>
          <path class="cls-1" d="M134.59,80.37c.56,4.47-2.61,8.56-7.08,9.12-3.53.44-13.49-3.48-17.66-5.2-.66-.27-.77-1.16-.2-1.58,3.61-2.71,12.28-8.97,15.82-9.42,4.47-.56,8.56,2.61,9.12,7.08Z"/>
          <path class="cls-1" d="M123.71,108.38c-3.29,3.07-8.47,2.9-11.54-.4-2.43-2.6-5.09-12.97-6.13-17.36-.16-.69.49-1.3,1.17-1.09,4.31,1.34,14.47,4.7,16.9,7.3,3.07,3.29,2.9,8.47-.4,11.54Z"/>
        </g>
        <g>
          <path class="cls-1" d="M122.3,32.42c3.5,2.83,4.05,7.98,1.22,11.48-2.24,2.77-12.13,6.85-16.33,8.49-.66.26-1.36-.3-1.24-1,.72-4.45,2.63-14.98,4.87-17.75,2.83-3.5,7.98-4.05,11.48-1.22Z"/>
          <path class="cls-1" d="M133.88,60.14c-.24,4.5-4.09,7.96-8.59,7.72-3.56-.19-12.66-5.82-16.45-8.26-.6-.39-.55-1.27.09-1.59,4.03-2.02,13.68-6.65,17.24-6.46,4.5.24,7.96,4.09,7.72,8.59Z"/>
        </g>
        <g>
          <path class="cls-1" d="M32.58,112.66c2.72-2.3,13.2-4.45,17.64-5.27.7-.13,1.27.55,1.03,1.22-1.55,4.24-5.4,14.22-8.12,16.52-3.44,2.91-8.6,2.48-11.51-.96-2.91-3.44-2.48-8.6.96-11.51Z"/>
          <path class="cls-1" d="M50.84,127.6c-.27-3.55,4.13-13.31,6.06-17.38.3-.64,1.19-.71,1.59-.12,2.53,3.74,8.36,12.71,8.63,16.26.34,4.49-3.03,8.42-7.52,8.76s-8.42-3.03-8.76-7.52Z"/>
        </g>
        <g>
          <path class="cls-1" d="M67.44,13.28c-.11,3.56-5.54,12.78-7.9,16.63-.37.61-1.26.58-1.59-.05-2.11-3.99-6.94-13.53-6.83-17.09.14-4.5,3.92-8.04,8.42-7.9,4.5.14,8.04,3.92,7.9,8.42Z"/>
          <path class="cls-1" d="M44.12,16.84c2.82,2.18,7.11,11.98,8.85,16.14.27.66-.27,1.36-.98,1.26-4.47-.63-15.03-2.3-17.85-4.48-3.56-2.75-4.22-7.89-1.47-11.45,2.75-3.56,7.89-4.22,11.45-1.47Z"/>
        </g>
        <g>
          <path class="cls-1" d="M14.69,73.29c3.53.44,12.21,6.71,15.82,9.42.57.43.46,1.31-.2,1.58-4.17,1.73-14.12,5.65-17.66,5.2-4.47-.56-7.64-4.65-7.08-9.12s4.65-7.64,9.12-7.08Z"/>
          <path class="cls-1" d="M16.05,96.84c2.43-2.6,12.59-5.96,16.9-7.3.68-.21,1.33.4,1.17,1.09-1.04,4.39-3.7,14.75-6.13,17.36-3.07,3.29-8.25,3.47-11.54.4-3.29-3.07-3.47-8.25-.4-11.54Z"/>
        </g>
        <g>
          <path class="cls-1" d="M29.35,33.64c2.24,2.77,4.14,13.3,4.87,17.75.11.7-.58,1.26-1.24,1-4.2-1.64-14.09-5.72-16.33-8.49-2.83-3.5-2.28-8.65,1.22-11.48,3.5-2.83,8.65-2.28,11.48,1.22Z"/>
          <path class="cls-1" d="M14,51.55c3.56-.19,13.21,4.43,17.24,6.46.64.32.68,1.21.09,1.59-3.79,2.44-12.89,8.07-16.45,8.26-4.5.24-8.35-3.22-8.59-7.72-.24-4.5,3.22-8.35,7.72-8.59Z"/>
        </g>
      </g>
      <g>
        <g>
          <path class="cls-3" d="M70.69,25.75c-.22-.36-.61-.58-1.05-.58h0c-.44,0-.83.22-1.05.58-2.28,3.74-6.09,10.42-6.09,13.16,0,3.7,3.2,6.71,7.14,6.71s7.14-3.01,7.14-6.71c0-2.74-3.82-9.42-6.09-13.16Z"/>
          <path class="cls-3" d="M69.64,25.17c.44,0,.83.22,1.05.58,2.28,3.74,6.09,10.43,6.09,13.16,0,3.7-3.2,6.71-7.14,6.71s-7.14-3.01-7.14-6.71c0-2.74,3.82-9.42,6.09-13.16.22-.36.61-.58,1.05-.58h0M69.64,24.17c-.79,0-1.5.4-1.9,1.06-2.85,4.68-6.24,10.85-6.24,13.68,0,4.25,3.65,7.71,8.14,7.71s8.14-3.46,8.14-7.71c0-2.83-3.39-9-6.24-13.68-.4-.66-1.11-1.06-1.9-1.06h0Z"/>
        </g>
        <g>
          <path class="cls-3" d="M69.49,96.71c-3.94,0-7.14,3.01-7.14,6.71,0,2.74,3.82,9.42,6.09,13.16.22.36.61.58,1.05.58h0c.44,0,.83-.22,1.05-.58,2.28-3.74,6.09-10.42,6.09-13.16,0-3.7-3.2-6.71-7.14-6.71Z"/>
          <path class="cls-3" d="M69.49,96.71c3.94,0,7.14,3.01,7.14,6.71,0,2.74-3.82,9.42-6.09,13.16-.22.36-.61.58-1.05.58h0c-.44,0-.83-.22-1.05-.58-2.28-3.74-6.09-10.42-6.09-13.16,0-3.7,3.2-6.71,7.14-6.71M69.49,95.71c-4.49,0-8.14,3.46-8.14,7.71,0,2.83,3.39,9.01,6.24,13.68.4.66,1.11,1.06,1.9,1.06s1.5-.39,1.9-1.06c2.85-4.68,6.24-10.85,6.24-13.68,0-4.25-3.65-7.71-8.14-7.71h0Z"/>
        </g>
        <g>
          <path class="cls-3" d="M115.14,69.89c-3.74-2.28-10.42-6.09-13.16-6.09-3.7,0-6.71,3.2-6.71,7.14s3.01,7.14,6.71,7.14c2.74,0,9.42-3.82,13.16-6.09.36-.22.58-.61.58-1.05,0-.44-.21-.83-.58-1.05Z"/>
          <path class="cls-3" d="M101.97,63.79c2.74,0,9.42,3.82,13.16,6.09.36.22.58.61.58,1.05,0,.44-.22.83-.58,1.05-3.74,2.27-10.42,6.09-13.16,6.09-3.7,0-6.71-3.2-6.71-7.14s3.01-7.14,6.71-7.14M101.97,62.79c-4.25,0-7.71,3.65-7.71,8.14s3.46,8.14,7.71,8.14c2.84,0,9.01-3.39,13.68-6.24.66-.4,1.06-1.11,1.06-1.9,0-.79-.39-1.5-1.06-1.9-4.68-2.85-10.85-6.24-13.68-6.24h0Z"/>
        </g>
        <g>
          <path class="cls-3" d="M102.61,102.42c-1.04-4.25-3.07-11.68-5-13.62-1.27-1.27-2.99-1.96-4.85-1.87-1.85.06-3.6.83-4.95,2.18s-2.12,3.1-2.18,4.95c-.06,1.86.6,3.58,1.87,4.85,1.94,1.94,9.36,3.96,13.62,5,.09.02.19.03.28.03.32,0,.63-.13.87-.37.31-.31.43-.74.33-1.15Z"/>
          <path class="cls-3" d="M93.06,86.92c1.74,0,3.35.68,4.55,1.88,1.94,1.93,3.96,9.36,5,13.62.1.41-.02.84-.33,1.15-.24.24-.55.37-.87.37-.09,0-.19-.01-.28-.03-4.25-1.04-11.68-3.06-13.62-5-1.27-1.27-1.93-2.99-1.87-4.85.06-1.85.83-3.6,2.18-4.95,1.34-1.34,3.1-2.12,4.95-2.18.1,0,.2,0,.3,0M93.06,85.92c-.11,0-.23,0-.34,0-2.09.07-4.09.94-5.61,2.47-1.52,1.52-2.4,3.52-2.47,5.62-.07,2.14.7,4.12,2.17,5.59,2,2,8.77,3.97,14.09,5.27.17.04.35.06.52.06.59,0,1.15-.23,1.57-.66.56-.56.78-1.34.6-2.09-1.3-5.32-3.26-12.08-5.26-14.09-1.4-1.4-3.27-2.17-5.25-2.17h0Z"/>
        </g>
        <g>
          <path class="cls-3" d="M101.81,38.76c-.31-.31-.74-.43-1.15-.33-4.25,1.04-11.68,3.06-13.62,5-1.27,1.27-1.93,2.99-1.87,4.85.06,1.85.83,3.6,2.18,4.95,1.45,1.45,3.33,2.18,5.18,2.18,1.7,0,3.36-.62,4.62-1.88,1.94-1.94,3.96-9.36,5-13.62.1-.41-.02-.84-.33-1.15Z"/>
          <path class="cls-3" d="M100.94,38.4c.32,0,.63.13.86.37.31.31.43.74.33,1.15-1.04,4.25-3.06,11.68-5,13.62-1.25,1.25-2.92,1.88-4.62,1.88h0c-1.84,0-3.72-.73-5.17-2.18-1.34-1.34-2.12-3.1-2.18-4.95-.06-1.86.6-3.58,1.87-4.85,1.94-1.94,9.36-3.96,13.62-5,.09-.02.19-.03.28-.03M100.94,37.4c-.18,0-.35.02-.52.06-5.32,1.29-12.08,3.26-14.08,5.26-1.47,1.47-2.24,3.45-2.17,5.59.07,2.1.95,4.1,2.47,5.62,1.57,1.57,3.71,2.47,5.88,2.47,2.04,0,3.93-.77,5.33-2.17,2-2,3.97-8.77,5.26-14.09.18-.75-.04-1.53-.6-2.09-.42-.42-.98-.66-1.57-.66h0Z"/>
        </g>
        <g>
          <path class="cls-3" d="M37.97,63.79c-2.74,0-9.42,3.82-13.16,6.09-.36.22-.58.61-.58,1.05,0,.44.22.83.58,1.05,3.74,2.28,10.42,6.09,13.16,6.09,3.7,0,6.71-3.2,6.71-7.14s-3.01-7.14-6.71-7.14Z"/>
          <path class="cls-3" d="M37.97,63.79c3.7,0,6.71,3.2,6.71,7.14s-3.01,7.14-6.71,7.14c-2.74,0-9.42-3.82-13.16-6.09-.36-.22-.58-.61-.58-1.05,0-.44.22-.83.58-1.05,3.74-2.28,10.43-6.09,13.16-6.09M37.97,62.79c-2.83,0-9.01,3.39-13.68,6.24-.66.4-1.06,1.11-1.06,1.9,0,.79.4,1.5,1.06,1.9,4.68,2.85,10.85,6.24,13.68,6.24,4.25,0,7.71-3.65,7.71-8.14s-3.46-8.14-7.71-8.14h0Z"/>
        </g>
        <g>
          <path class="cls-3" d="M52.13,89.11c-1.34-1.34-3.1-2.12-4.95-2.18-1.85-.08-3.58.6-4.85,1.87-1.94,1.94-3.96,9.36-5,13.62-.1.41.02.84.33,1.15.24.24.55.37.87.37.09,0,.19-.01.28-.03,4.25-1.04,11.68-3.06,13.62-5,2.62-2.62,2.48-7.01-.3-9.79Z"/>
          <path class="cls-3" d="M46.9,86.92c.09,0,.19,0,.28,0,1.85.06,3.6.83,4.95,2.18,2.78,2.78,2.92,7.18.3,9.79-1.94,1.94-9.36,3.96-13.62,5-.09.02-.19.03-.28.03-.32,0-.63-.13-.87-.37-.31-.31-.43-.74-.33-1.15,1.04-4.25,3.06-11.68,5-13.62,1.21-1.21,2.82-1.88,4.57-1.88M46.9,85.92c-2,0-3.87.77-5.27,2.17-2,2-3.97,8.77-5.26,14.09-.18.75.04,1.53.6,2.09.43.43.98.66,1.57.66.18,0,.35-.02.52-.06,5.32-1.29,12.08-3.26,14.08-5.26,3.01-3.01,2.87-8.03-.3-11.21-1.52-1.52-3.52-2.4-5.62-2.47-.1,0-.21,0-.31,0h0Z"/>
        </g>
        <g>
          <path class="cls-3" d="M52.9,43.43c-1.94-1.94-9.36-3.96-13.62-5-.41-.1-.84.02-1.15.33-.31.31-.43.74-.33,1.15,1.04,4.25,3.06,11.68,5,13.62,1.22,1.22,2.85,1.88,4.61,1.88.08,0,.16,0,.23,0,1.85-.06,3.6-.83,4.95-2.18,1.34-1.34,2.12-3.1,2.18-4.95.06-1.86-.6-3.58-1.87-4.85Z"/>
          <path class="cls-3" d="M39,38.4c.09,0,.19.01.28.03,4.25,1.04,11.68,3.06,13.62,5,1.27,1.27,1.93,2.99,1.87,4.85-.06,1.85-.83,3.6-2.18,4.95-1.34,1.34-3.1,2.12-4.95,2.18-.08,0-.16,0-.23,0-1.77,0-3.4-.66-4.61-1.88-1.94-1.94-3.96-9.36-5-13.62-.1-.41.02-.84.33-1.15.24-.24.55-.37.86-.37M39,37.4c-.59,0-1.15.23-1.57.66-.56.56-.78,1.34-.6,2.09,1.3,5.32,3.26,12.08,5.26,14.09,1.4,1.4,3.29,2.17,5.32,2.17.09,0,.18,0,.28,0,2.09-.07,4.09-.95,5.61-2.47,1.52-1.52,2.4-3.52,2.47-5.62.07-2.14-.7-4.12-2.17-5.59-2.01-2-8.77-3.97-14.09-5.26-.17-.04-.34-.06-.52-.06h0Z"/>
        </g>
        <g>
          <g>
            <path class="cls-3" d="M108.54,124.17c-2.91,3.44-8.07,3.87-11.51.96-2.72-2.3-6.57-12.29-8.12-16.52-.24-.67.33-1.35,1.03-1.22,4.43.82,14.92,2.97,17.64,5.27,3.44,2.91,3.87,8.07.96,11.51Z"/>
            <path class="cls-3" d="M89.77,107.38c.06,0,.11,0,.17.02,4.43.82,14.92,2.97,17.64,5.27,3.44,2.91,3.87,8.07.96,11.51-1.61,1.91-3.92,2.89-6.24,2.89-1.86,0-3.74-.63-5.27-1.93-2.72-2.3-6.57-12.29-8.12-16.52-.22-.61.24-1.23.86-1.23M89.77,106.38h0c-.62,0-1.21.31-1.57.82-.36.51-.44,1.17-.23,1.76,1.94,5.31,5.61,14.57,8.41,16.94,1.65,1.4,3.75,2.16,5.91,2.16,2.71,0,5.26-1.18,7-3.24,3.26-3.86,2.78-9.65-1.08-12.92-2.8-2.37-12.54-4.46-18.1-5.49-.12-.02-.24-.03-.36-.03h0Z"/>
          </g>
          <g>
            <path class="cls-3" d="M80.55,135.12c-4.49-.34-7.86-4.28-7.52-8.76.27-3.55,6.11-12.52,8.63-16.26.4-.59,1.29-.52,1.59.12,1.93,4.08,6.33,13.83,6.06,17.38-.34,4.49-4.28,7.86-8.76,7.52Z"/>
            <path class="cls-3" d="M82.43,109.69c.33,0,.67.18.83.53,1.93,4.08,6.33,13.83,6.06,17.38-.33,4.28-3.91,7.54-8.14,7.54-.21,0-.42,0-.63-.02-4.49-.34-7.86-4.28-7.52-8.76.27-3.55,6.11-12.52,8.63-16.26.18-.27.47-.4.76-.4M82.43,108.69c-.64,0-1.23.32-1.59.84-3.17,4.68-8.52,13.09-8.8,16.74-.19,2.44.59,4.8,2.19,6.66,1.6,1.86,3.82,2.99,6.25,3.17.24.02.47.03.71.03,4.76,0,8.77-3.72,9.13-8.47.28-3.66-3.73-12.78-6.15-17.89-.32-.68-.99-1.1-1.74-1.1h0Z"/>
          </g>
        </g>
        <g>
          <g>
            <path class="cls-3" d="M80.62,4.86c4.5-.14,8.28,3.4,8.42,7.9.11,3.56-4.72,13.11-6.83,17.09-.33.63-1.22.66-1.59.05-2.36-3.84-7.79-13.07-7.9-16.63-.14-4.5,3.4-8.28,7.9-8.42Z"/>
            <path class="cls-3" d="M80.88,4.86c4.38,0,8.02,3.49,8.16,7.91.11,3.56-4.72,13.11-6.83,17.09-.17.32-.49.49-.81.49-.3,0-.6-.14-.78-.44-2.36-3.84-7.79-13.07-7.9-16.63-.14-4.5,3.4-8.28,7.9-8.42.09,0,.18,0,.26,0M80.88,3.86c-.1,0-.2,0-.3,0-5.05.16-9.03,4.4-8.87,9.45.12,3.67,5.09,12.3,8.05,17.12.35.57.96.92,1.63.92.71,0,1.36-.39,1.7-1.02,2.64-5,7.06-13.93,6.94-17.59-.16-4.98-4.18-8.87-9.16-8.87h0Z"/>
          </g>
          <g>
            <path class="cls-3" d="M107.49,18.31c2.75,3.56,2.09,8.7-1.47,11.45-2.82,2.18-13.39,3.85-17.85,4.48-.71.1-1.25-.61-.98-1.26,1.73-4.16,6.03-13.97,8.85-16.14,3.56-2.75,8.7-2.09,11.45,1.47Z"/>
            <path class="cls-3" d="M101.02,15.14c2.45,0,4.86,1.09,6.47,3.17,2.75,3.56,2.09,8.7-1.47,11.45-2.82,2.18-13.39,3.85-17.85,4.48-.04,0-.09,0-.13,0-.64,0-1.1-.66-.84-1.27,1.73-4.16,6.03-13.97,8.85-16.14,1.48-1.15,3.24-1.7,4.98-1.7M101.02,14.14h0c-2.04,0-3.98.66-5.59,1.91-2.9,2.24-6.98,11.33-9.16,16.55-.25.59-.18,1.27.17,1.8.36.54.95.85,1.59.85.09,0,.18,0,.27-.02,5.6-.79,15.42-2.44,18.33-4.68,4-3.09,4.74-8.86,1.65-12.86-1.75-2.26-4.39-3.56-7.26-3.56h0Z"/>
          </g>
        </g>
        <g>
          <g>
            <path class="cls-3" d="M134.59,80.37c.56,4.47-2.61,8.56-7.08,9.12-3.53.44-13.49-3.48-17.66-5.2-.66-.27-.77-1.16-.2-1.58,3.61-2.71,12.28-8.97,15.82-9.42,4.47-.56,8.56,2.61,9.12,7.08Z"/>
            <path class="cls-3" d="M126.5,73.22c4.05,0,7.58,3.02,8.1,7.15.56,4.47-2.61,8.56-7.08,9.12-.19.02-.39.03-.61.03-3.96,0-13.1-3.6-17.04-5.24-.66-.27-.77-1.16-.2-1.58,3.61-2.71,12.28-8.97,15.82-9.42.34-.04.69-.06,1.03-.06M126.5,72.22c-.38,0-.77.02-1.15.07-3.64.46-11.77,6.22-16.29,9.61-.56.42-.84,1.08-.75,1.77.09.69.52,1.26,1.17,1.53,4.79,1.98,13.42,5.31,17.42,5.31.27,0,.51-.01.74-.04,5.01-.63,8.58-5.22,7.95-10.24-.58-4.57-4.48-8.02-9.09-8.02h0Z"/>
          </g>
          <g>
            <path class="cls-3" d="M123.71,108.38c-3.29,3.07-8.47,2.9-11.54-.4-2.43-2.6-5.09-12.97-6.13-17.36-.16-.69.49-1.3,1.17-1.09,4.31,1.34,14.47,4.7,16.9,7.3,3.07,3.29,2.9,8.47-.4,11.54Z"/>
            <path class="cls-3" d="M106.93,89.49c.09,0,.18.01.28.04,4.31,1.34,14.47,4.7,16.9,7.3,3.07,3.29,2.9,8.47-.4,11.54-1.57,1.47-3.57,2.19-5.57,2.19-2.19,0-4.37-.87-5.97-2.59-2.43-2.6-5.09-12.97-6.13-17.36-.14-.6.32-1.13.89-1.13M106.93,88.49h0c-.59,0-1.14.27-1.5.73-.36.46-.5,1.06-.36,1.63,1.3,5.5,3.87,15.13,6.37,17.81,1.72,1.85,4.17,2.91,6.7,2.91,2.33,0,4.55-.87,6.25-2.46,1.79-1.67,2.82-3.94,2.9-6.39.08-2.45-.79-4.78-2.46-6.57-2.5-2.68-11.93-5.9-17.33-7.57-.19-.06-.38-.09-.57-.09h0Z"/>
          </g>
        </g>
        <g>
          <g>
            <path class="cls-3" d="M122.3,32.42c3.5,2.83,4.05,7.98,1.22,11.48-2.24,2.77-12.13,6.85-16.33,8.49-.66.26-1.36-.3-1.24-1,.72-4.45,2.63-14.98,4.87-17.75,2.83-3.5,7.98-4.05,11.48-1.22Z"/>
            <path class="cls-3" d="M117.17,30.61c1.8,0,3.61.59,5.12,1.81,3.5,2.83,4.05,7.98,1.22,11.48-2.24,2.77-12.13,6.85-16.33,8.49-.11.04-.23.06-.34.06-.54,0-1-.48-.9-1.07.72-4.45,2.63-14.98,4.87-17.75,1.61-2,3.98-3.03,6.36-3.03M117.17,29.61h0c-2.79,0-5.39,1.24-7.14,3.4-2.3,2.85-4.17,12.64-5.07,18.22-.09.56.07,1.12.43,1.55.37.43.9.68,1.46.68.24,0,.48-.04.7-.13,5.26-2.06,14.44-5.94,16.74-8.8,1.54-1.9,2.24-4.29,1.98-6.73-.26-2.44-1.45-4.62-3.35-6.16-1.62-1.31-3.66-2.03-5.75-2.03h0Z"/>
          </g>
          <g>
            <path class="cls-3" d="M133.88,60.14c-.24,4.5-4.09,7.96-8.59,7.72-3.56-.19-12.66-5.82-16.45-8.26-.6-.39-.55-1.27.09-1.59,4.03-2.02,13.68-6.65,17.24-6.46,4.5.24,7.96,4.09,7.72,8.59Z"/>
            <path class="cls-3" d="M125.94,51.55c.08,0,.15,0,.22,0,4.5.24,7.96,4.09,7.72,8.59-.23,4.35-3.84,7.73-8.15,7.73-.15,0-.29,0-.44-.01-3.56-.19-12.66-5.82-16.45-8.26-.6-.39-.55-1.27.09-1.59,3.95-1.98,13.3-6.46,17.02-6.46M125.94,50.55h0c-3.8,0-12.57,4.11-17.47,6.57-.62.31-1.02.92-1.06,1.61-.04.7.29,1.34.88,1.72,4.75,3.06,13.28,8.22,16.94,8.42.17,0,.33.01.49.01,4.87,0,8.89-3.81,9.15-8.68.27-5.05-3.62-9.37-8.66-9.64-.09,0-.18,0-.27,0h0Z"/>
          </g>
        </g>
        <g>
          <g>
            <path class="cls-3" d="M32.58,112.66c2.72-2.3,13.2-4.45,17.64-5.27.7-.13,1.27.55,1.03,1.22-1.55,4.24-5.4,14.22-8.12,16.52-3.44,2.91-8.6,2.48-11.51-.96-2.91-3.44-2.48-8.6.96-11.51Z"/>
            <path class="cls-3" d="M50.39,107.38c.62,0,1.08.62.86,1.23-1.55,4.24-5.4,14.22-8.12,16.52-1.53,1.3-3.4,1.93-5.27,1.93-2.32,0-4.63-.98-6.24-2.89-2.91-3.44-2.48-8.6.96-11.51,2.72-2.3,13.2-4.45,17.64-5.27.06-.01.12-.02.17-.02M50.39,106.38c-.12,0-.24.01-.36.03-5.56,1.03-15.3,3.12-18.1,5.49-3.86,3.26-4.34,9.06-1.08,12.92,1.74,2.06,4.3,3.24,7,3.24,2.16,0,4.26-.77,5.91-2.16,2.8-2.37,6.47-11.63,8.41-16.94.21-.59.13-1.25-.23-1.76-.36-.51-.95-.82-1.57-.82h0Z"/>
          </g>
          <g>
            <path class="cls-3" d="M50.84,127.6c-.27-3.55,4.13-13.31,6.06-17.38.3-.64,1.19-.71,1.59-.12,2.53,3.74,8.36,12.71,8.63,16.26.34,4.49-3.03,8.42-7.52,8.76s-8.42-3.03-8.76-7.52Z"/>
            <path class="cls-3" d="M57.73,109.69c.29,0,.58.13.76.4,2.53,3.74,8.36,12.71,8.63,16.26.34,4.49-3.03,8.42-7.52,8.76-.21.02-.42.02-.63.02-4.22,0-7.81-3.26-8.14-7.54-.27-3.55,4.13-13.31,6.06-17.38.16-.35.5-.53.83-.53M57.73,108.69h0c-.75,0-1.41.42-1.74,1.1-2.42,5.11-6.43,14.23-6.15,17.89.36,4.75,4.38,8.47,9.13,8.47.23,0,.47,0,.71-.03,2.44-.19,4.66-1.31,6.25-3.17,1.6-1.86,2.37-4.23,2.19-6.66-.28-3.66-5.63-12.06-8.8-16.74-.36-.53-.95-.84-1.59-.84h0Z"/>
          </g>
        </g>
        <g>
          <g>
            <path class="cls-3" d="M67.44,13.28c-.11,3.56-5.54,12.78-7.9,16.63-.37.61-1.26.58-1.59-.05-2.11-3.99-6.94-13.53-6.83-17.09.14-4.5,3.92-8.04,8.42-7.9,4.5.14,8.04,3.92,7.9,8.42Z"/>
            <path class="cls-3" d="M59.28,4.86c.09,0,.18,0,.26,0,4.5.14,8.04,3.92,7.9,8.42-.11,3.56-5.54,12.78-7.9,16.63-.18.29-.48.44-.78.44-.32,0-.64-.16-.81-.49-2.11-3.99-6.94-13.53-6.83-17.09.14-4.41,3.78-7.9,8.16-7.91M59.28,3.86h0c-4.98,0-9,3.9-9.16,8.87-.12,3.67,4.3,12.6,6.94,17.59.33.63.98,1.02,1.7,1.02.67,0,1.28-.34,1.63-.92,2.96-4.82,7.93-13.45,8.05-17.12.16-5.05-3.82-9.29-8.87-9.45-.1,0-.2,0-.29,0h0Z"/>
          </g>
          <g>
            <path class="cls-3" d="M44.12,16.84c2.82,2.18,7.11,11.98,8.85,16.14.27.66-.27,1.36-.98,1.26-4.47-.63-15.03-2.3-17.85-4.48-3.56-2.75-4.22-7.89-1.47-11.45,2.75-3.56,7.89-4.22,11.45-1.47Z"/>
            <path class="cls-3" d="M39.14,15.14c1.74,0,3.5.55,4.98,1.7,2.82,2.18,7.11,11.98,8.85,16.14.26.62-.2,1.27-.84,1.27-.04,0-.09,0-.13,0-4.47-.63-15.03-2.3-17.85-4.48-3.56-2.75-4.22-7.89-1.47-11.45,1.61-2.08,4.03-3.17,6.47-3.17M39.14,14.14h0c-2.87,0-5.52,1.3-7.26,3.56-3.09,4-2.35,9.77,1.65,12.86,2.9,2.24,12.73,3.89,18.33,4.68.09.01.18.02.27.02.64,0,1.23-.32,1.59-.86.36-.53.42-1.21.17-1.8-2.17-5.22-6.25-14.31-9.16-16.55-1.62-1.25-3.55-1.91-5.59-1.91h0Z"/>
          </g>
        </g>
        <g>
          <g>
            <path class="cls-3" d="M14.69,73.29c3.53.44,12.21,6.71,15.82,9.42.57.43.46,1.31-.2,1.58-4.17,1.73-14.12,5.65-17.66,5.2-4.47-.56-7.64-4.65-7.08-9.12s4.65-7.64,9.12-7.08Z"/>
            <path class="cls-3" d="M13.66,73.22c.34,0,.68.02,1.03.06,3.53.44,12.21,6.71,15.82,9.42.57.43.46,1.31-.2,1.58-3.94,1.64-13.08,5.24-17.04,5.24-.22,0-.43-.01-.61-.03-4.47-.56-7.64-4.65-7.08-9.12.52-4.12,4.04-7.15,8.1-7.15M13.66,72.22h0c-4.61,0-8.51,3.45-9.09,8.02-.63,5.01,2.93,9.61,7.95,10.24.23.03.47.04.74.04,4.01,0,12.64-3.33,17.42-5.31.64-.27,1.08-.84,1.17-1.53.09-.69-.19-1.36-.75-1.77-4.52-3.39-12.65-9.15-16.29-9.61-.38-.05-.77-.07-1.15-.07h0Z"/>
          </g>
          <g>
            <path class="cls-3" d="M16.05,96.84c2.43-2.6,12.59-5.96,16.9-7.3.68-.21,1.33.4,1.17,1.09-1.04,4.39-3.7,14.75-6.13,17.36-3.07,3.29-8.25,3.47-11.54.4-3.29-3.07-3.47-8.25-.4-11.54Z"/>
            <path class="cls-3" d="M33.22,89.49c.57,0,1.03.53.89,1.13-1.04,4.39-3.7,14.75-6.13,17.36-1.61,1.72-3.79,2.59-5.97,2.59-2,0-4-.73-5.57-2.19-3.29-3.07-3.47-8.25-.4-11.54,2.43-2.6,12.59-5.96,16.9-7.3.09-.03.19-.04.28-.04M33.22,88.49c-.19,0-.39.03-.57.09-5.4,1.68-14.83,4.89-17.33,7.57-1.67,1.79-2.54,4.12-2.46,6.57.08,2.45,1.11,4.72,2.9,6.39,1.7,1.59,3.92,2.46,6.25,2.46,2.53,0,4.98-1.06,6.7-2.91,2.5-2.68,5.06-12.31,6.37-17.81.14-.58,0-1.17-.36-1.63-.37-.46-.91-.73-1.5-.73h0Z"/>
          </g>
        </g>
        <g>
          <g>
            <path class="cls-3" d="M29.35,33.64c2.24,2.77,4.14,13.3,4.87,17.75.11.7-.58,1.26-1.24,1-4.2-1.64-14.09-5.72-16.33-8.49-2.83-3.5-2.28-8.65,1.22-11.48,3.5-2.83,8.65-2.28,11.48,1.22Z"/>
            <path class="cls-3" d="M22.98,30.61c2.38,0,4.75,1.04,6.36,3.03,2.24,2.77,4.14,13.3,4.87,17.75.09.58-.37,1.07-.9,1.07-.11,0-.22-.02-.34-.06-4.2-1.64-14.09-5.72-16.33-8.49-2.83-3.5-2.28-8.65,1.22-11.48,1.51-1.22,3.32-1.81,5.12-1.81M22.98,29.61h0c-2.09,0-4.13.72-5.75,2.03-3.93,3.18-4.55,8.96-1.37,12.89,2.3,2.85,11.48,6.74,16.74,8.8.23.09.46.13.7.13.56,0,1.09-.25,1.46-.68.36-.43.52-.99.43-1.55-.91-5.58-2.77-15.37-5.07-18.22-1.75-2.16-4.35-3.4-7.14-3.4h0Z"/>
          </g>
          <g>
            <path class="cls-3" d="M14,51.55c3.56-.19,13.21,4.43,17.24,6.46.64.32.68,1.21.09,1.59-3.79,2.44-12.89,8.07-16.45,8.26-4.5.24-8.35-3.22-8.59-7.72-.24-4.5,3.22-8.35,7.72-8.59Z"/>
            <path class="cls-3" d="M14.22,51.55c3.72,0,13.07,4.48,17.02,6.46.64.32.68,1.21.09,1.59-3.79,2.44-12.89,8.07-16.45,8.26-.15,0-.3.01-.44.01-4.3,0-7.92-3.38-8.15-7.73-.24-4.5,3.22-8.35,7.72-8.59.07,0,.15,0,.22,0M14.22,50.55h0c-.1,0-.19,0-.28,0-5.05.27-8.93,4.6-8.66,9.64.26,4.87,4.28,8.68,9.15,8.68.16,0,.33,0,.49-.01,3.66-.2,12.18-5.36,16.94-8.42.59-.38.92-1.02.88-1.72-.04-.7-.43-1.3-1.06-1.61-4.89-2.45-13.66-6.57-17.46-6.57h0Z"/>
          </g>
        </g>
      </g>
    </g>
  </g>
</svg>